# xmcd
#
# Track frame offsets:
#	150
#	16737
#	33241
#	47168
#	66744
#
# Disc length: 1056 seconds
#
# Revision: 1
# Processed by: cddbd v1.5.2PL0 Copyright (c) Steve Scherf et al.
# Submitted via: audiograbber 1.83.01
#
DISCID=3d041e05
DTITLE=Marita Vikström - Cowgirl 
DYEAR=1998
DGENRE=Country
TTITLE0=Cowgirl
TTITLE1=Quit Before The Last Cigarette
TTITLE2=Winter Of 82
TTITLE3=Angel
TTITLE4=Release Me
EXTD=
EXTT0=
EXTT1=
EXTT2=
EXTT3=
EXTT4=
PLAYORDER=
